<?xml version="1.0" encoding="UTF-8" standalone="no"?>
<!DOCTYPE svg PUBLIC "-//W3C//DTD SVG 1.1//EN"
 "http://www.w3.org/Graphics/SVG/1.1/DTD/svg11.dtd">
<!-- Generated by graphviz version 2.26.3 (20100126.1600)
 -->
<!-- Title: Finite_Automata_Graph Pages: 1 -->
<svg width="142pt" height="404pt"
 viewBox="0.00 0.00 142.00 404.00" xmlns="http://www.w3.org/2000/svg" xmlns:xlink="http://www.w3.org/1999/xlink">
<g id="graph1" class="graph" transform="scale(1 1) rotate(0) translate(4 400)">
<title>Finite_Automata_Graph</title>
<polygon fill="white" stroke="white" points="-4,5 -4,-400 139,-400 139,5 -4,5"/>
<!-- 0 -->
<g id="node1" class="node"><title>0</title>
<ellipse fill="none" stroke="#000000" cx="99" cy="-378" rx="18" ry="18"/>
<text text-anchor="middle" x="99" y="-373.4" font-family="Times Roman,serif" font-size="14.00">0</text>
</g>
<!-- 1 -->
<g id="node2" class="node"><title>1</title>
<ellipse fill="none" stroke="#000000" cx="99" cy="-290" rx="18" ry="18"/>
<text text-anchor="middle" x="99" y="-285.4" font-family="Times Roman,serif" font-size="14.00">1</text>
</g>
<!-- 0&#45;&gt;1 -->
<g id="edge2" class="edge"><title>0&#45;&gt;1</title>
<path fill="none" stroke="black" d="M99,-359.766C99,-347.849 99,-332.038 99,-318.482"/>
<polygon fill="black" stroke="black" points="102.5,-318.21 99,-308.21 95.5001,-318.21 102.5,-318.21"/>
<text text-anchor="middle" x="103.5" y="-329.4" font-family="Times Roman,serif" font-size="14.00">a</text>
</g>
<!-- 2 -->
<g id="node3" class="node"><title>2</title>
<ellipse fill="none" stroke="#000000" cx="18" cy="-202" rx="18" ry="18"/>
<text text-anchor="middle" x="18" y="-197.4" font-family="Times Roman,serif" font-size="14.00">2</text>
</g>
<!-- 1&#45;&gt;2 -->
<g id="edge4" class="edge"><title>1&#45;&gt;2</title>
<path fill="none" stroke="black" d="M86.6978,-276.635C73.6144,-262.421 52.7369,-239.739 37.4276,-223.106"/>
<polygon fill="black" stroke="black" points="39.7655,-220.478 30.4179,-215.491 34.6152,-225.219 39.7655,-220.478"/>
<text text-anchor="middle" x="69.5" y="-241.4" font-family="Times Roman,serif" font-size="14.00">a</text>
</g>
<!-- 3 -->
<g id="node4" class="node"><title>3</title>
<ellipse fill="none" stroke="#000000" cx="63" cy="-114" rx="18" ry="18"/>
<text text-anchor="middle" x="63" y="-109.4" font-family="Times Roman,serif" font-size="14.00">3</text>
</g>
<!-- 1&#45;&gt;3 -->
<g id="edge6" class="edge"><title>1&#45;&gt;3</title>
<path fill="none" stroke="black" d="M95.35,-272.156C89.07,-241.453 76.1769,-178.42 68.703,-141.881"/>
<polygon fill="black" stroke="black" points="72.0927,-140.987 66.6596,-131.892 65.2347,-142.39 72.0927,-140.987"/>
<text text-anchor="middle" x="89" y="-197.4" font-family="Times Roman,serif" font-size="14.00">b</text>
</g>
<!-- 4 -->
<g id="node5" class="node"><title>4</title>
<ellipse fill="none" stroke="#000000" cx="63" cy="-22" rx="18" ry="18"/>
<ellipse fill="none" stroke="#000000" cx="63" cy="-22" rx="22" ry="22"/>
<text text-anchor="middle" x="63" y="-17.4" font-family="Times Roman,serif" font-size="14.00">4</text>
</g>
<!-- 1&#45;&gt;4 -->
<g id="edge8" class="edge"><title>1&#45;&gt;4</title>
<path fill="none" stroke="black" d="M105.254,-272.876C116.856,-238.418 138.732,-158.65 118,-96 111.61,-76.6908 98.014,-58.3194 85.9392,-44.7117"/>
<polygon fill="black" stroke="black" points="88.4287,-42.2485 79.0716,-37.2791 83.2874,-46.999 88.4287,-42.2485"/>
<text text-anchor="middle" x="130" y="-153.4" font-family="Times Roman,serif" font-size="14.00">c</text>
</g>
<!-- 2&#45;&gt;2 -->
<g id="edge10" class="edge"><title>2&#45;&gt;2</title>
<path fill="none" stroke="black" d="M34.2903,-209.668C44.3892,-211.517 54,-208.961 54,-202 54,-197.541 50.0557,-194.889 44.5656,-194.045"/>
<polygon fill="black" stroke="black" points="44.1887,-190.554 34.2903,-194.332 44.384,-197.552 44.1887,-190.554"/>
<text text-anchor="middle" x="58.5" y="-197.4" font-family="Times Roman,serif" font-size="14.00">a</text>
</g>
<!-- 2&#45;&gt;3 -->
<g id="edge12" class="edge"><title>2&#45;&gt;3</title>
<path fill="none" stroke="black" d="M23.0206,-184.63C26.3346,-174.274 31.1427,-161.037 37,-150 39.4033,-145.471 42.3125,-140.866 45.3025,-136.53"/>
<polygon fill="black" stroke="black" points="48.3688,-138.264 51.4174,-128.118 42.7066,-134.149 48.3688,-138.264"/>
<text text-anchor="middle" x="42" y="-153.4" font-family="Times Roman,serif" font-size="14.00">b</text>
</g>
<!-- 2&#45;&gt;4 -->
<g id="edge14" class="edge"><title>2&#45;&gt;4</title>
<path fill="none" stroke="black" d="M17.8183,-183.651C18.0414,-162.238 19.779,-125.946 28,-96 32.3293,-80.23 39.8382,-63.6857 46.7935,-50.2495"/>
<polygon fill="black" stroke="black" points="50.0732,-51.5388 51.7069,-41.0706 43.9018,-48.2352 50.0732,-51.5388"/>
<text text-anchor="middle" x="32" y="-109.4" font-family="Times Roman,serif" font-size="14.00">c</text>
</g>
<!-- 3&#45;&gt;2 -->
<g id="edge16" class="edge"><title>3&#45;&gt;2</title>
<path fill="none" stroke="black" d="M59.2539,-131.992C56.6719,-142.323 52.6719,-155.323 47,-166 44.2703,-171.139 40.7608,-176.254 37.1321,-180.947"/>
<polygon fill="black" stroke="black" points="34.2752,-178.91 30.6145,-188.853 39.6763,-183.363 34.2752,-178.91"/>
<text text-anchor="middle" x="57.5" y="-153.4" font-family="Times Roman,serif" font-size="14.00">a</text>
</g>
<!-- 3&#45;&gt;3 -->
<g id="edge18" class="edge"><title>3&#45;&gt;3</title>
<path fill="none" stroke="black" d="M79.2903,-121.668C89.3892,-123.517 99,-120.961 99,-114 99,-109.541 95.0557,-106.889 89.5656,-106.045"/>
<polygon fill="black" stroke="black" points="89.1887,-102.554 79.2903,-106.332 89.384,-109.552 89.1887,-102.554"/>
<text text-anchor="middle" x="104" y="-109.4" font-family="Times Roman,serif" font-size="14.00">b</text>
</g>
<!-- 3&#45;&gt;4 -->
<g id="edge20" class="edge"><title>3&#45;&gt;4</title>
<path fill="none" stroke="black" d="M63,-95.8238C63,-83.9726 63,-68.1746 63,-54.2345"/>
<polygon fill="black" stroke="black" points="66.5001,-54.0326 63,-44.0326 59.5001,-54.0327 66.5001,-54.0326"/>
<text text-anchor="middle" x="67" y="-65.4" font-family="Times Roman,serif" font-size="14.00">c</text>
</g>
</g>
</svg>
